Coordinates
version=1
nRows=13
nColumns=34
inDegrees=yes

Units are S.I. units (second, meters, Newtons, ...)
Angles are in degrees.

endheader
time	pelvis_tilt	pelvis_list	pelvis_rotation	pelvis_tx	pelvis_ty	pelvis_tz	hip_flexion_r	hip_adduction_r	hip_rotation_r	knee_angle_r	ankle_angle_r	subtalar_angle_r	mtp_angle_r	hip_flexion_l	hip_adduction_l	hip_rotation_l	knee_angle_l	socket_flexion	socket_adduction	socket_rotation	socket_tx	socket_ty	socket_tz	pros_ankle_rx	pros_ankle_ry	pros_ankle_rz	pros_ankle_tx	pros_ankle_ty	pros_ankle_tz	foot_flex	lumbar_extension	lumbar_bending	lumbar_rotation
      0.00000000	     -2.98791283	    -10.80275100	     -4.58264552	     -0.78495950	      1.03891292	      0.36666683	    -16.57052315	     11.69915631	     -3.89195288	     -2.71084114	      3.69096515	     22.47804660	     27.64511102	     23.81167839	    -12.39695169	      2.05167543	     -4.48504326	     -2.81322713	      0.00000000	      0.00000000	      0.00000000	      0.00000000	      0.00000000	      0.00000000	      0.00000000	      0.00000000	      0.00000000	      0.00000000	      0.00000000	     -0.31770406	    -15.25371925	      6.16518887	     13.28711636
      0.00416667	     -3.02632557	    -10.79880460	     -4.64409929	     -0.78014958	      1.03807190	      0.36667734	    -16.74547939	     11.63542720	     -3.83191214	     -2.83409321	      3.69668810	     22.51036772	     27.65859509	     23.86679880	    -12.36875135	      2.08240194	     -4.58073406	     -2.71646802	      0.00000000	      0.00000000	      0.00000000	      0.00000000	      0.00000000	      0.00000000	      0.00000000	      0.00000000	      0.00000000	      0.00000000	      0.00000000	     -0.65178971	    -15.22888190	      6.10744430	     13.28662028
      0.00833333	     -3.06094784	    -10.78376497	     -4.71169953	     -0.77519145	      1.03722454	      0.36665482	    -16.92397245	     11.55126960	     -3.75603788	     -2.96619866	      3.71544634	     22.55722684	     27.68191937	     23.92521008	    -12.32446468	      2.08983829	     -4.71066860	     -2.61703582	      0.00000000	      0.00000000	      0.00000000	      0.00000000	      0.00000000	      0.00000000	      0.00000000	      0.00000000	      0.00000000	      0.00000000	      0.00000000	     -1.02425547	    -15.20642759	      6.01852886	     13.29100562
      0.01250000	     -3.10234582	    -10.74605887	     -4.80570603	     -0.77000344	      1.03638875	      0.36670527	    -17.10102973	     11.43793298	     -3.67714547	     -3.10942369	      3.74979326	     22.61639107	     27.71835953	     23.97682484	    -12.27306857	      2.08312584	     -4.87323867	     -2.53508794	      0.00000000	      0.00000000	      0.00000000	      0.00000000	      0.00000000	      0.00000000	      0.00000000	      0.00000000	      0.00000000	      0.00000000	      0.00000000	     -1.40915666	    -15.18798422	      5.88610228	     13.29987190
      0.01666667	     -3.13142582	    -10.69333750	     -4.90045548	     -0.76475166	      1.03555727	      0.36680091	    -17.27287071	     11.30776091	     -3.58996326	     -3.28570284	      3.78571504	     22.68449825	     27.76735614	     24.02995320	    -12.21033900	      2.05964713	     -5.07057329	     -2.43846631	      0.00000000	      0.00000000	      0.00000000	      0.00000000	      0.00000000	      0.00000000	      0.00000000	      0.00000000	      0.00000000	      0.00000000	      0.00000000	     -1.79635310	    -15.17039125	      5.72802406	     13.31532817
      0.02083333	     -3.16877250	    -10.60457739	     -5.03245143	     -0.75932627	      1.03473501	      0.36693170	    -17.43254616	     11.12124058	     -3.51643980	     -3.47531232	      3.85076953	     22.78220586	     27.85595294	     24.07557549	    -12.12498114	      1.97795028	     -5.31896579	     -2.39601804	      0.00000000	      0.00000000	      0.00000000	      0.00000000	      0.00000000	      0.00000000	      0.00000000	      0.00000000	      0.00000000	      0.00000000	      0.00000000	     -2.21003814	    -15.16468827	      5.47908873	     13.34893220
      0.02500000	     -3.22205608	    -10.60344376	     -5.10135067	     -0.75379977	      1.03386666	      0.36693180	    -17.61419340	     11.04751831	     -3.49698713	     -3.59386269	      3.84804199	     22.79693249	     27.86887575	     24.13941772	    -12.10351533	      1.99259870	     -5.47885513	     -2.16715228	      0.00000000	      0.00000000	      0.00000000	      0.00000000	      0.00000000	      0.00000000	      0.00000000	      0.00000000	      0.00000000	      0.00000000	      0.00000000	     -2.33080668	    -15.15360226	      5.44846663	     13.35323132
      0.02916667	     -3.18590648	    -10.35213510	     -5.32924153	     -0.74827687	      1.03327079	      0.36730060	    -17.66770455	     10.63813076	     -3.55178929	     -4.13866258	      4.09285439	     23.31212147	     28.48359044	     24.14829658	    -11.88657463	      1.63008199	     -6.04979486	     -2.35229165	      0.00000000	      0.00000000	      0.00000000	      0.00000000	      0.00000000	      0.00000000	      0.00000000	      0.00000000	      0.00000000	      0.00000000	      0.00000000	     -2.88553405	    -15.22463754	      4.83019310	     13.62747572
      0.03333333	     -3.21838549	    -10.32356128	     -5.35001925	     -0.74275968	      1.03247789	      0.36717715	    -17.82926240	     10.54375438	     -3.48016437	     -4.31537755	      4.06184666	     23.34190490	     28.51611296	     24.20050357	    -11.81918470	      1.69226312	     -6.23003643	     -2.09230178	      0.00000000	      0.00000000	      0.00000000	      0.00000000	      0.00000000	      0.00000000	      0.00000000	      0.00000000	      0.00000000	      0.00000000	      0.00000000	     -3.08827317	    -15.19965863	      4.78317511	     13.62188374
      0.03750000	     -3.26151395	    -10.14723409	     -5.46308084	     -0.73709420	      1.03178099	      0.36738847	    -17.90072029	     10.27647639	     -3.48640749	     -4.63743750	      4.04937334	     23.40977772	     28.72831934	     24.24149551	    -11.65451168	      1.60798190	     -6.55153546	     -2.01493528	      0.00000000	      0.00000000	      0.00000000	      0.00000000	      0.00000000	      0.00000000	      0.00000000	      0.00000000	      0.00000000	      0.00000000	      0.00000000	     -3.53526525	    -15.20109425	      4.36412909	     13.57431238
      0.04166667	     -3.27149789	     -9.96385870	     -5.54995012	     -0.73145814	      1.03112390	      0.36750147	    -17.98713490	      9.99768164	     -3.50261474	     -4.99080866	      4.05943048	     23.52483164	     29.03106925	     24.27713158	    -11.46313183	      1.49420047	     -6.94155585	     -1.91669870	      0.00000000	      0.00000000	      0.00000000	      0.00000000	      0.00000000	      0.00000000	      0.00000000	      0.00000000	      0.00000000	      0.00000000	      0.00000000	     -3.79800833	    -15.19455247	      4.00455862	     13.56413430
      0.04583333	     -3.28816304	     -9.85308657	     -5.57719078	     -0.72587687	      1.03051950	      0.36743386	    -18.09410150	      9.82111341	     -3.42364455	     -5.27751493	      4.01565127	     23.57036828	     29.15268488	     24.30443493	    -11.32548154	      1.53670095	     -7.21925017	     -1.70938055	      0.00000000	      0.00000000	      0.00000000	      0.00000000	      0.00000000	      0.00000000	      0.00000000	      0.00000000	      0.00000000	      0.00000000	      0.00000000	     -4.00233672	    -15.18218732	      3.83981258	     13.55611825
      0.05000000	     -3.36442739	     -9.61251756	     -5.54890852	     -0.72007017	      1.02963812	      0.36739952	    -17.91037120	      9.45482735	     -4.21629562	     -5.92762104	      3.91676237	     24.57745701	     32.79806077	     24.58677163	    -11.02768831	      1.45208258	     -8.08415444	     -1.87019474	      0.00000000	      0.00000000	      0.00000000	      0.00000000	      0.00000000	      0.00000000	      0.00000000	      0.00000000	      0.00000000	      0.00000000	      0.00000000	     -4.19253064	    -15.06983980	      3.37884474	     13.39808004
